<?xml version="1.0" standalone="no"?>
<!DOCTYPE svg PUBLIC "-//W3C//DTD SVG 20010904//EN"
 "http://www.w3.org/TR/2001/REC-SVG-20010904/DTD/svg10.dtd">
<svg version="1.0" xmlns="http://www.w3.org/2000/svg"
 width="700.000000pt" height="700.000000pt" viewBox="0 0 700.000000 700.000000"
 preserveAspectRatio="xMidYMid meet">
<metadata>
Created by potrace 1.14, written by Peter Selinger 2001-2017
</metadata>
<g transform="translate(0.000000,700.000000) scale(0.100000,-0.100000)"
fill="#000000" stroke="none">
<path d="M4234 6202 c-14 -33 -49 -82 -85 -118 -89 -93 -110 -148 -118 -302
l-7 -125 -51 -46 c-28 -25 -56 -57 -63 -69 -6 -13 -18 -102 -26 -197 l-14
-173 -46 -93 c-39 -80 -45 -101 -41 -139 5 -44 4 -46 -45 -85 -68 -56 -153
-171 -233 -316 -37 -68 -77 -137 -89 -154 -12 -16 -34 -50 -48 -75 -14 -25
-56 -72 -93 -104 l-68 -60 8 50 c9 64 31 127 47 137 7 4 37 22 66 38 63 36 91
86 92 164 0 46 4 55 39 89 79 77 77 126 -6 126 -36 0 -50 -6 -74 -30 -30 -29
-30 -29 -23 -117 9 -122 -4 -152 -86 -193 -52 -26 -65 -38 -81 -76 -24 -53
-49 -178 -49 -242 0 -43 -14 -71 -146 -292 -80 -135 -150 -249 -155 -255 -6
-5 1 20 15 57 14 36 57 176 96 310 137 467 146 490 265 633 178 215 208 253
236 302 34 59 33 56 95 288 62 233 81 292 117 348 30 48 30 49 11 68 -18 17
-21 18 -42 3 -12 -8 -30 -31 -40 -50 -9 -18 -71 -84 -137 -145 -117 -109 -159
-142 -451 -356 -221 -161 -312 -260 -422 -463 -161 -298 -203 -672 -132 -1160
28 -191 27 -221 -20 -364 -22 -67 -40 -133 -40 -146 0 -12 -30 -88 -66 -169
-37 -80 -81 -184 -99 -231 -19 -47 -37 -85 -40 -85 -4 0 -22 47 -41 105 -50
158 -48 239 11 418 46 141 75 262 75 311 0 63 -64 66 -93 6 -21 -44 -22 -69
-2 -85 8 -7 15 -19 15 -27 0 -19 -80 -266 -90 -276 -4 -5 -16 34 -26 85 -26
126 -27 422 -2 484 13 33 15 50 7 78 -12 43 -33 57 -69 44 -49 -17 -66 -92
-29 -129 20 -20 20 -25 9 -125 -16 -156 6 -334 74 -574 13 -47 27 -101 31
-120 4 -19 20 -77 36 -128 16 -51 29 -102 29 -115 0 -12 7 -32 15 -44 13 -19
9 -37 -51 -214 -37 -111 -79 -264 -99 -359 -19 -91 -38 -178 -42 -193 -5 -16
-7 64 -5 177 5 220 -3 304 -43 471 -13 55 -26 129 -30 165 -10 100 -31 165
-92 280 -115 216 -181 304 -289 386 -65 49 -78 65 -108 127 -19 40 -53 137
-75 217 -48 166 -94 267 -148 327 -50 55 -80 64 -89 27 -8 -32 12 -306 31
-429 8 -49 24 -174 35 -276 11 -103 29 -222 40 -265 35 -135 60 -174 222 -342
254 -262 332 -363 402 -519 78 -175 85 -294 37 -636 l-34 -238 -38 72 c-21 39
-58 97 -82 128 l-43 56 29 65 c44 98 45 147 8 260 -18 52 -37 117 -43 145 -14
68 -35 105 -58 105 -10 0 -36 -20 -57 -45 -20 -25 -40 -42 -44 -37 -4 4 -12
24 -19 45 -14 44 -45 66 -65 45 -17 -17 -40 -288 -32 -374 10 -102 31 -131
154 -205 90 -55 132 -100 186 -199 62 -113 79 -168 86 -270 6 -90 7 -95 33
-110 25 -13 29 -13 44 1 14 15 15 26 4 105 -11 75 -10 111 4 227 l16 138 49
57 c56 65 104 140 149 229 36 70 52 83 235 188 114 65 180 113 392 285 211
171 281 207 574 291 113 32 303 93 421 135 309 109 421 137 545 136 169 -1
340 -58 502 -168 51 -35 132 -83 180 -109 109 -56 117 -63 129 -99 14 -42 39
-55 61 -33 17 16 17 20 1 65 -9 26 -24 78 -33 116 -33 144 -146 322 -249 390
-113 75 -417 211 -616 276 -150 48 -363 68 -545 50 -482 -48 -834 -277 -1279
-834 -129 -161 -188 -256 -270 -434 -41 -91 -86 -174 -104 -193 l-32 -34 10
35 c6 19 26 111 46 204 23 109 62 247 111 390 41 122 77 228 80 236 7 23 363
253 583 377 107 61 312 172 455 248 536 283 723 406 934 610 114 111 198 216
267 336 34 59 80 114 178 212 173 174 206 238 150 294 -23 23 -31 25 -79 19
-83 -9 -236 -67 -565 -213 -587 -261 -934 -454 -1202 -670 -43 -35 -78 -61
-78 -58 0 2 81 139 180 304 164 273 187 306 251 363 38 35 93 97 121 138 63
90 60 88 223 199 72 49 184 130 250 181 l120 91 83 -5 c49 -3 173 -27 310 -60
306 -74 345 -80 542 -73 317 11 583 92 860 262 52 32 133 80 180 108 145 85
198 136 185 177 -9 28 -47 25 -75 -6 -49 -51 -186 -94 -305 -94 -100 0 -396
45 -560 85 -190 47 -279 58 -385 45 -291 -36 -615 -192 -985 -474 -117 -90
-298 -216 -310 -216 -7 0 37 77 88 153 61 91 133 155 319 282 259 177 275 184
538 245 272 63 402 105 518 165 157 81 265 191 336 340 112 232 109 226 92
244 -15 15 -19 15 -49 -3 -124 -73 -205 -109 -322 -141 -349 -98 -423 -142
-635 -379 -61 -69 -133 -145 -161 -170 -44 -39 -430 -306 -444 -306 -19 0 46
149 88 201 12 15 36 46 52 69 17 23 77 83 134 133 230 202 265 305 211 631
-15 92 -20 159 -17 195 7 63 2 75 -31 84 -20 5 -26 -2 -48 -51z m19 -149 c5
-27 3 -32 -16 -35 -19 -3 -24 -14 -39 -83 -10 -44 -22 -116 -28 -160 -13 -99
-59 -196 -131 -280 -28 -33 -60 -73 -70 -90 l-19 -30 0 30 c2 81 16 115 73
168 62 58 64 63 70 217 5 118 28 174 99 247 29 29 53 51 53 50 1 -1 5 -16 8
-34z m34 -258 c4 -96 2 -117 -17 -168 -27 -71 -75 -133 -173 -220 -96 -85
-105 -65 -18 36 67 77 124 179 139 247 6 25 18 94 28 154 21 133 33 119 41
-49z m1029 -60 c-109 -235 -311 -366 -713 -459 -57 -13 -103 -22 -103 -20 0 1
30 24 68 50 37 26 106 81 154 121 119 100 180 140 245 159 58 17 75 37 50 61
-13 13 -20 13 -68 -1 -76 -22 -140 -62 -243 -150 -48 -42 -109 -91 -135 -108
-25 -17 -77 -56 -116 -87 l-70 -55 55 64 c99 117 234 247 298 288 77 50 157
80 332 127 74 20 167 51 205 69 39 18 71 29 73 25 2 -4 -13 -42 -32 -84z
m-1780 -402 c-4 -10 -29 -102 -57 -206 -27 -104 -58 -205 -68 -226 -26 -50
-78 -117 -204 -268 -167 -197 -168 -199 -302 -655 -90 -305 -130 -422 -190
-557 -41 -93 -105 -214 -111 -209 -2 2 4 26 12 53 12 38 18 131 24 375 9 340
21 443 59 518 11 22 27 42 36 46 22 8 15 50 -8 54 -24 5 -63 -32 -89 -81 -36
-72 -48 -171 -58 -487 -10 -338 -16 -411 -34 -436 -20 -26 -57 268 -64 493 -9
344 46 579 193 828 102 171 182 249 454 442 167 119 307 231 370 297 39 40 46
44 37 19z m444 -20 c0 -3 -9 -16 -20 -30 -19 -24 -20 -24 -20 -5 0 33 11 51
26 45 8 -3 14 -7 14 -10z m1250 -218 c182 -45 446 -85 570 -85 62 0 91 -3 84
-10 -27 -27 -241 -145 -334 -184 -255 -108 -557 -156 -792 -127 -113 14 -540
117 -518 124 231 84 292 85 475 11 l120 -49 115 1 c91 1 135 6 211 27 173 47
204 60 207 85 2 12 -3 24 -11 28 -8 3 -70 -11 -138 -30 -149 -43 -256 -59
-324 -50 -27 3 -104 27 -170 52 -101 39 -134 47 -205 50 -76 3 -97 0 -199 -32
-63 -20 -116 -35 -118 -32 -2 2 45 31 104 64 166 93 348 163 513 196 14 2 79
3 145 1 97 -3 148 -10 265 -40z m-468 -751 c-6 -31 -73 -111 -187 -224 -60
-59 -120 -129 -137 -160 -66 -115 -135 -208 -227 -304 -215 -221 -406 -349
-976 -651 -363 -192 -638 -350 -808 -464 -75 -50 -137 -87 -137 -82 0 31 39
88 101 147 39 38 150 154 246 257 332 356 686 657 1087 922 229 151 314 199
533 301 115 53 224 104 243 113 19 9 51 25 70 36 19 10 41 19 49 19 22 1 38
33 23 48 -18 18 -96 -12 -388 -148 -573 -265 -1155 -703 -1666 -1252 -99 -106
-182 -191 -185 -188 -3 3 25 60 63 128 187 342 284 459 554 669 279 217 589
388 1160 642 302 134 448 191 525 207 51 10 61 7 57 -16z m-3577 -843 c13 -31
40 -116 61 -187 65 -228 93 -276 234 -387 65 -51 135 -150 229 -321 70 -129
73 -139 105 -336 9 -52 25 -134 35 -182 11 -49 22 -123 26 -165 l6 -78 -35 76
c-28 58 -46 126 -80 300 -70 345 -73 352 -284 579 -68 73 -136 155 -152 184
-17 28 -51 114 -76 191 -53 160 -68 194 -96 216 -16 13 -20 32 -25 115 -5 95
-4 98 12 76 9 -13 27 -49 40 -81z m85 -540 c18 -34 78 -109 137 -173 210 -226
228 -253 262 -408 28 -128 50 -244 47 -247 -1 -2 -27 28 -58 65 -31 37 -125
139 -210 227 -206 214 -221 247 -253 565 -8 85 -17 171 -20 190 -3 19 10 -9
29 -62 19 -53 49 -124 66 -157z m2755 -72 c149 -18 411 -114 657 -241 110 -57
221 -136 173 -124 -168 44 -390 58 -525 33 -47 -9 -113 -18 -148 -21 -98 -9
-245 -50 -506 -142 -133 -47 -321 -107 -419 -135 -303 -84 -374 -122 -671
-363 -148 -120 -256 -194 -366 -251 l-31 -16 36 58 c183 289 514 588 858 777
116 63 130 75 121 100 -10 27 -38 19 -159 -49 -214 -120 -384 -247 -564 -419
-92 -89 -107 -100 -72 -56 416 535 769 788 1186 849 88 13 326 13 430 0z m691
-400 c33 -5 94 -19 137 -31 72 -19 81 -24 105 -62 25 -39 75 -167 67 -174 -7
-7 -152 72 -224 123 -88 61 -155 96 -261 137 l-75 29 96 -6 c53 -3 123 -10
155 -16z m-3221 -811 c14 6 25 11 25 9 0 -1 7 -40 15 -87 8 -47 15 -131 15
-188 l0 -103 -40 22 c-87 49 -103 91 -93 256 l6 101 23 -10 c17 -8 31 -8 49 0z
m137 -256 l-10 -37 -1 45 c-1 25 -3 63 -6 85 l-5 40 16 -48 c12 -37 13 -58 6
-85z m311 -93 c-23 -39 -43 -57 -43 -38 0 31 13 58 29 62 31 9 32 7 14 -24z"/>
<path d="M3396 5206 c-12 -14 -36 -65 -51 -113 -25 -81 -34 -94 -98 -160 -38
-40 -135 -132 -214 -205 -212 -195 -276 -279 -241 -314 19 -20 45 -8 53 23 3
15 66 84 153 167 81 78 199 193 262 256 l116 115 27 91 c15 51 34 97 42 104
21 17 19 37 -5 50 -17 9 -24 6 -44 -14z"/>
<path d="M3735 2759 c-145 -19 -356 -85 -393 -123 -18 -18 -9 -46 15 -46 10 0
50 13 89 29 209 85 475 107 694 57 36 -8 94 -17 130 -21 70 -8 246 -41 260
-50 5 -3 16 8 24 24 16 29 16 30 -17 40 -44 14 -175 38 -274 51 -45 6 -112 17
-150 25 -88 19 -288 27 -378 14z"/>
<path d="M4829 4000 c-122 -36 -135 -176 -20 -211 115 -34 213 100 132 182
-16 16 -36 29 -44 29 -9 0 -21 2 -29 4 -7 2 -25 1 -39 -4z m69 -72 c30 -30 -3
-78 -53 -78 -54 0 -71 34 -35 70 22 22 69 27 88 8z"/>
</g>
</svg>
