<?xml version="1.0" encoding="UTF-8" standalone="no"?>
<!DOCTYPE svg PUBLIC "-//W3C//DTD SVG 1.1//EN" "http://www.w3.org/Graphics/SVG/1.1/DTD/svg11.dtd">
<!-- Created with Vectornator (http://vectornator.io/) -->
<svg height="100%" stroke-miterlimit="10" style="fill-rule:nonzero;clip-rule:evenodd;stroke-linecap:round;stroke-linejoin:round;" version="1.1" viewBox="0 0 181.259 227.463" width="100%" xml:space="preserve" xmlns="http://www.w3.org/2000/svg" xmlns:xlink="http://www.w3.org/1999/xlink">
<defs/>
<clipPath id="ArtboardFrame">
<rect height="227.463" width="181.259" x="0" y="0"/>
</clipPath>
<g clip-path="url(#ArtboardFrame)" id="Untitled">
<path d="M92.2247 203.366L92.2247 203.366L92.0247 203.366L78.0247 203.566L86.1247 185.066C86.1247 185.066 86.5247 183.466 87.6247 185.066L92.2247 203.366L92.2247 203.366L92.2247 203.366L92.2247 203.366ZM171.825 75.2656L171.825 75.2656C168.625 73.3656 166.625 68.0656 166.525 61.5656C172.425 62.0656 176.525 61.0656 178.925 58.4656C181.825 55.1656 181.225 50.0656 180.525 46.4656L180.425 45.7656L179.925 46.2656C177.425 48.6656 175.325 49.5656 173.625 48.8656C169.325 47.0656 167.925 36.2656 167.925 32.7656C167.425 23.7656 164.225 17.0656 158.725 13.8656C154.225 11.2656 148.725 11.2656 143.625 13.8656C140.425 15.4656 138.425 17.8656 137.525 21.0656C136.025 26.1656 137.925 32.2656 140.125 36.0656C129.125 44.9656 110.325 42.7656 107.625 42.4656C104.125 36.2656 102.425 29.5656 102.425 22.6656L102.425 22.5656C102.425 21.7656 102.625 21.2656 103.125 20.9656C104.425 20.2656 107.325 21.8656 108.425 22.5656L108.925 21.9656C108.925 21.9656 106.325 19.4656 102.525 8.96557C100.225 3.76557 93.3247 1.46557 90.5247 0.765571C85.0247-1.13443 81.6247 0.365571 79.3247 5.36557C79.1247 5.76557 77.8247 5.86557 76.7247 5.96557C75.1247 6.06557 73.3247 6.16557 72.4247 7.16557C70.1247 9.66557 72.0247 15.4656 72.1247 15.7656L72.3247 16.2656L72.7247 15.9656C72.8247 15.9656 77.0247 13.2656 80.1247 14.9656C82.3247 16.0656 83.5247 19.0656 83.6247 23.6656C83.6247 27.3656 80.4247 33.5656 73.9247 42.5656C71.1247 42.9656 52.5247 45.1656 41.4247 36.2656C43.5247 32.3656 45.4247 26.2656 43.9247 21.1656C43.0247 18.0656 40.9247 15.6656 37.7247 14.0656C32.9247 11.5656 27.2247 11.8656 22.6247 14.6656C16.4247 18.4656 12.8247 26.3656 12.8247 36.3656C12.8247 39.4656 11.1247 48.1656 7.32472 49.5656C5.52472 50.2656 3.32472 49.1656 1.02472 46.3656L0.324717 45.5656L0.124717 46.3656C-0.675283 50.4656 0.0247173 56.1656 3.62472 59.4656C5.52472 61.2656 8.92472 63.0656 14.7247 61.6656C14.6247 68.1656 12.6247 73.3656 9.42472 75.2656C7.32472 76.5656 4.72472 76.3656 1.72472 74.7656L1.02472 74.3656L1.12472 75.1656C2.02472 81.1656 4.32472 84.8656 7.82472 86.0656C12.4247 87.6656 19.1247 84.6656 27.6247 77.0656C25.4247 86.7656 22.9247 97.4656 16.5247 100.766C13.6247 102.266 10.1247 102.166 5.92472 100.366L5.32472 100.066L5.42472 100.766C6.62472 108.966 9.52472 114.666 13.6247 116.766C16.5247 118.266 19.9247 117.966 23.6247 115.966C33.5247 110.666 38.8247 94.2656 39.0247 93.5656C39.1247 93.2656 39.2247 92.9656 39.3247 92.6656L39.4247 92.7656C41.0247 94.3656 43.3247 95.0656 45.7247 94.7656C48.9247 94.3656 51.8247 92.1656 53.6247 88.9656C54.7247 86.6656 55.5247 84.7656 56.2247 83.0656C56.8247 81.6656 57.3247 80.4656 57.8247 79.3656C57.5247 82.0656 56.5247 84.8656 54.9247 87.0656L54.9247 86.9656C54.4247 87.4656 54.3247 87.8656 54.6247 88.1656C55.5247 89.0656 61.6247 86.2656 62.8247 85.1656C63.0247 84.8656 63.5247 84.8656 63.8247 85.0656C64.7247 85.5656 65.3247 87.2656 64.5247 90.6656C63.2247 95.9656 61.7247 97.6656 60.1247 99.3656C58.9247 98.1656 53.8247 93.7656 49.6247 95.3656C47.0247 96.3656 45.4247 99.4656 44.9247 104.766C41.9247 107.766 39.8247 112.866 41.3247 116.166C42.1247 117.866 44.1247 119.666 49.3247 119.166C49.2247 119.666 49.1247 120.166 49.1247 120.766L49.1247 120.766L49.1247 120.766C49.4247 124.566 50.6247 127.066 52.7247 128.366C54.9247 129.766 58.0247 129.566 61.9247 128.066L62.3247 127.866L62.1247 127.466C61.1247 125.666 58.9247 121.966 59.8247 119.866C60.1247 119.166 60.8247 118.766 61.9247 118.566C62.1247 118.766 62.3247 118.966 62.5247 119.266C63.9247 120.866 65.9247 123.266 68.9247 122.566C73.9247 121.366 76.4247 119.266 76.4247 116.166C76.4247 112.766 75.5247 109.166 69.5247 106.066C69.6247 103.566 71.1247 102.666 73.4247 101.466C75.6247 100.266 78.4247 98.7656 80.6247 95.0656L80.8247 94.7656C80.9247 94.6656 81.1247 94.3656 81.3247 94.3656C81.5247 94.3656 81.7247 94.5656 82.0247 94.8656L82.3247 95.3656C85.7247 100.366 86.6247 108.966 85.7247 109.766C85.5247 109.866 85.1247 110.166 84.7247 110.466C82.7247 111.666 79.1247 113.866 79.3247 116.466C79.4247 118.166 81.1247 119.666 84.5247 121.066L84.6247 121.066C85.0247 121.466 85.2247 124.566 83.6247 128.366C82.1247 132.166 78.7247 136.866 69.6247 135.966L69.0247 135.866L69.2247 136.466C70.9247 142.566 73.0247 145.566 79.7247 145.866C76.3247 148.566 72.6247 150.466 72.5247 150.566L72.2247 150.666L72.2247 150.966C72.2247 151.066 73.2247 156.866 82.3247 156.966C82.6247 161.166 87.2247 165.066 90.2247 167.666L90.5247 167.866L90.8247 167.666C93.9247 165.066 98.5247 161.166 98.7247 156.966C107.925 156.766 108.825 150.966 108.825 150.966L108.825 150.666L108.525 150.566C108.525 150.566 104.725 148.566 101.425 145.866C108.025 145.566 110.125 142.566 111.825 136.466L111.925 135.866L111.325 135.966C102.125 136.866 97.9247 132.066 96.4247 128.266C94.9247 124.366 95.9247 121.366 96.3247 120.966L96.4247 120.966C99.7247 119.566 101.425 118.166 101.625 116.366C101.825 113.766 98.2247 111.566 96.2247 110.366C95.7247 110.066 95.3247 109.866 95.2247 109.666C94.2247 108.866 95.2247 100.266 98.6247 95.2656C98.6247 95.2656 98.9247 94.7656 99.1247 94.5656L100.325 94.6656L100.425 94.8656C102.625 98.5656 105.425 100.066 107.625 101.166C109.925 102.366 111.525 103.266 111.625 105.966C105.525 109.066 104.725 112.666 104.725 116.066C104.725 119.166 107.225 121.266 112.225 122.466C115.325 123.166 117.325 120.766 118.625 119.166C118.825 118.866 119.025 118.666 119.225 118.466C120.225 118.666 120.925 119.066 121.325 119.766C122.325 121.866 120.025 125.666 119.025 127.366L118.825 127.766L119.225 127.966C123.225 129.566 126.325 129.666 128.525 128.166C130.725 126.766 131.925 123.766 132.025 119.366L132.025 119.366L132.025 119.366C132.025 119.266 131.925 119.166 131.925 119.066C137.025 119.466 139.025 117.666 139.725 115.966C141.225 112.666 139.125 107.566 136.125 104.566C135.625 99.2656 134.025 96.1656 131.425 95.1656C127.825 93.8656 123.125 97.0656 120.925 99.2656C119.325 97.5656 117.825 95.9656 116.525 90.5656C115.725 87.1656 116.325 85.4656 117.225 84.9656C117.625 84.7656 118.025 84.7656 118.225 85.0656C119.425 86.2656 125.625 89.1656 126.425 88.1656C126.825 87.6656 126.325 87.0656 126.025 86.8656C124.525 84.6656 123.525 81.9656 123.225 79.1656C123.725 80.2656 124.225 81.3656 124.825 82.7656C125.525 84.4656 126.325 86.4656 127.425 88.6656C129.225 91.9656 132.125 94.0656 135.325 94.4656C137.725 94.7656 140.025 94.0656 141.625 92.4656L141.725 92.3656C141.825 92.6656 141.925 92.9656 142.025 93.2656C142.225 93.9656 147.525 110.366 157.425 115.666C161.125 117.666 164.525 117.966 167.425 116.466C171.625 114.366 174.525 108.666 175.725 100.466L175.825 99.7656L175.125 100.066C170.925 101.866 167.425 101.966 164.525 100.466C158.225 97.1656 155.625 86.4656 153.425 76.8656C161.925 84.4656 168.525 87.4656 173.225 85.8656C176.625 84.6656 178.925 80.8656 179.825 74.8656L179.925 74.0656L179.225 74.4656C176.525 76.3656 173.925 76.5656 171.825 75.2656L171.825 75.2656ZM82.5247 35.2656L82.5247 35.2656C85.2247 31.2656 88.7247 23.1656 82.3247 14.0656L82.3247 14.0656L82.3247 14.0656C81.0247 12.7656 80.0247 12.3656 79.6247 12.2656L79.2247 10.4656L79.1247 10.1656L78.8247 10.1656C78.1247 10.1656 75.3247 10.9656 73.9247 11.6656C73.8247 11.0656 73.7247 10.0656 74.3247 9.26557C75.1247 8.26557 77.0247 7.96557 79.7247 8.46557L79.7247 8.46557L79.7247 8.46557C80.6247 8.46557 80.9247 7.66557 81.1247 6.86557C81.3247 6.26557 81.5247 5.46557 82.0247 4.76557C83.7247 2.56557 85.8247 2.46557 88.6247 3.16557C91.0247 3.76557 95.4247 5.56557 97.7247 7.56557C101.025 10.4656 101.625 14.2656 101.725 17.3656C100.425 16.7656 99.4247 16.5656 98.6247 16.9656C98.0247 17.2656 97.6247 17.8656 97.4247 18.8656C96.2247 24.8656 97.1247 31.1656 100.225 36.5656C103.225 41.5656 104.025 45.2656 104.225 47.2656C103.625 46.4656 103.125 45.5656 102.625 44.7656C101.725 43.2656 101.125 42.1656 100.325 42.1656L100.025 42.1656L99.9247 42.3656C98.9247 44.2656 97.8247 46.3656 98.1247 48.5656C95.9247 47.6656 94.0247 46.2656 93.8247 41.8656L93.0247 41.7656L92.4247 43.4656C91.5247 45.9656 90.6247 48.3656 90.1247 49.3656C87.9247 44.8656 86.6247 43.5656 85.8247 42.7656L85.4247 42.3656L85.1247 42.8656C84.5247 43.9656 83.9247 44.8656 83.4247 45.6656C82.8247 46.6656 82.4247 47.4656 82.1247 48.1656C80.8247 46.0656 80.3247 45.3656 80.2247 45.2656C80.2247 44.9656 78.4247 41.2656 82.5247 35.2656L82.5247 35.2656ZM78.1247 44.1656L78.1247 44.1656L78.1247 44.2656C78.1247 45.6656 78.1247 46.7656 77.6247 47.2656C77.4247 47.4656 77.1247 47.4656 76.8247 47.4656C76.9247 45.5656 77.3247 44.6656 77.7247 44.3656C77.9247 44.2656 78.0247 44.2656 78.1247 44.1656L78.1247 44.1656ZM80.3247 49.2656L80.3247 49.2656C81.4247 51.8656 82.3247 54.9656 82.4247 55.0656L82.9247 56.4656L83.2247 54.9656C83.2247 54.8656 84.5247 49.3656 86.1247 47.3656C87.9247 49.3656 90.8247 54.9656 90.8247 55.0656L91.5247 54.8656C91.5247 54.8656 91.4247 50.8656 93.7247 48.2656C94.2247 48.8656 94.8247 49.5656 95.3247 50.2656C96.6247 52.0656 98.1247 53.9656 99.6247 53.9656L100.025 53.9656L100.025 53.5656C100.025 50.1656 100.625 48.5656 101.025 47.9656L105.125 51.9656C105.625 52.7656 104.425 60.5656 102.425 63.2656C100.225 58.7656 98.2247 55.9656 97.4247 55.0656L97.1247 54.7656L96.8247 55.0656C96.4247 55.4656 96.2247 56.2656 95.9247 57.4656C95.5247 59.1656 95.0247 61.3656 93.7247 62.5656C92.5247 61.2656 91.8247 59.8656 91.2247 58.5656C90.7247 57.4656 90.2247 56.4656 89.5247 55.7656L89.1247 55.3656L88.8247 55.8656C88.0247 57.2656 87.7247 58.6656 87.4247 59.8656C87.1247 60.8656 86.8247 61.7656 86.4247 62.3656L82.0247 57.9656L81.0247 56.9656L80.3247 56.2656L80.3247 57.2656C80.3247 60.5656 80.0247 61.9656 79.8247 62.5656C78.9247 61.6656 76.4247 58.8656 75.2247 54.5656C76.1247 53.9656 79.0247 51.7656 80.3247 49.2656L80.3247 49.2656ZM60.3247 83.2656L60.3247 83.2656C61.6247 80.0656 63.3247 73.6656 62.8247 70.4656C62.6247 68.8656 62.0247 66.9656 60.9247 66.8656C60.0247 66.7656 59.1247 67.9656 58.3247 70.2656C51.4247 92.1656 45.9247 92.3656 42.7247 91.6656C45.1247 89.8656 47.9247 85.5656 49.1247 78.0656C50.6247 67.1656 49.6247 65.0656 48.8247 64.3656C48.5247 64.1656 47.9247 63.8656 47.1247 64.1656C45.0247 64.9656 42.4247 72.8656 38.5247 84.8656C36.7247 90.4656 35.0247 95.6656 33.8247 98.3656C28.6247 109.166 22.8247 114.766 17.4247 114.266C13.5247 113.866 10.2247 110.066 8.42472 104.066C13.7247 104.966 18.4247 103.866 22.1247 100.766C33.1247 91.6656 34.0247 68.3656 34.0247 61.4656L34.0247 61.3656C34.0247 59.3656 33.5247 58.1656 32.7247 57.9656C32.0247 57.8656 31.4247 58.4656 31.0247 59.5656C23.2247 81.7656 14.4247 83.6656 11.0247 83.5656C7.62472 83.3656 5.12472 81.1656 4.22472 78.9656C7.32472 79.8656 10.1247 79.4656 12.4247 77.7656C20.1247 72.2656 20.4247 55.1656 20.4247 55.0656C20.4247 53.1656 20.1247 52.2656 19.5247 51.9656C18.9247 51.6656 18.3247 52.1656 17.9247 52.6656C14.1247 57.0656 10.7247 58.9656 7.92472 58.0656C5.22472 57.2656 3.92472 54.2656 3.52472 52.1656C5.82472 53.2656 7.92472 53.4656 9.62472 52.4656C15.3247 49.2656 16.0247 35.5656 16.1247 31.3656C16.1247 27.0656 18.8247 21.9656 22.6247 18.8656C24.7247 17.2656 28.0247 15.4656 32.0247 16.4656C36.2247 17.6656 38.9247 19.7656 39.9247 22.8656C41.7247 28.1656 38.0247 34.6656 36.4247 36.6656L36.2247 36.8656L36.4247 37.0656C43.0247 46.4656 67.1247 48.1656 71.7247 48.4656C69.1247 52.3656 65.2247 51.7656 59.1247 50.6656L57.4247 50.3656C48.9247 48.9656 39.7247 42.7656 36.2247 40.1656C31.0247 36.3656 30.3247 33.0656 30.3247 30.5656C30.3247 30.0656 30.4247 29.9656 30.4247 29.9656C30.8247 29.9656 32.3247 31.6656 33.2247 35.0656L33.4247 35.7656L33.9247 35.2656C35.4247 33.7656 35.3247 32.5656 35.2247 31.0656C35.2247 30.6656 35.1247 30.1656 35.1247 29.7656C35.1247 29.0656 35.2247 28.9656 35.2247 28.9656C35.3247 28.9656 35.8247 29.1656 36.2247 29.2656C36.6247 29.4656 37.2247 29.6656 37.8247 29.8656L38.3247 29.9656L38.3247 29.4656C38.3247 27.6656 36.1247 24.9656 34.2247 24.2656C33.8247 23.2656 34.2247 21.9656 34.5247 20.8656C34.7247 20.0656 34.9247 19.3656 34.9247 18.7656L34.9247 18.3656L34.5247 18.3656C33.2247 18.3656 32.8247 19.2656 31.9247 21.1656C31.6247 21.8656 31.2247 22.7656 30.7247 23.8656C29.0247 23.0656 28.6247 22.0656 28.1247 21.1656C27.8247 20.5656 27.6247 19.8656 27.0247 19.3656L26.7247 19.0656L26.4247 19.3656C25.8247 19.9656 25.8247 21.1656 25.8247 21.8656C25.8247 23.2656 26.2247 25.1656 26.9247 25.8656C27.9247 26.8656 28.4247 27.3656 28.4247 28.4656C24.3247 36.1656 36.4247 44.2656 43.7247 49.1656C52.3247 54.9656 64.5247 54.9656 69.2247 54.9656L69.3247 54.9656C70.0247 54.9656 70.5247 54.9656 70.7247 55.0656C70.5247 55.1656 70.3247 55.2656 70.2247 55.3656C69.7247 55.6656 69.1247 56.0656 68.7247 56.4656L68.7247 56.4656L68.7247 56.4656C67.8247 58.0656 67.0247 58.7656 66.2247 58.8656C65.3247 58.9656 64.2247 58.3656 62.6247 56.7656L62.2247 56.3656L61.9247 56.8656C61.0247 58.4656 60.0247 59.2656 59.0247 59.3656C57.6247 59.4656 55.9247 58.1656 54.1247 55.6656L53.8247 55.2656L53.5247 55.5656C52.0247 57.0656 50.9247 57.7656 50.1247 57.5656C49.3247 57.3656 48.8247 55.7656 48.3247 54.1656C48.2247 53.7656 48.1247 53.4656 47.9247 53.0656L48.0247 52.6656L47.6247 52.8656C45.7247 53.9656 44.5247 54.3656 43.8247 53.9656C43.1247 53.6656 42.9247 52.3656 42.6247 50.7656C42.5247 50.3656 42.5247 49.8656 42.4247 49.4656L42.3247 48.9656L41.8247 49.2656C39.7247 50.3656 38.3247 50.7656 37.4247 50.3656C36.4247 49.9656 35.9247 48.5656 35.3247 46.6656L35.2247 46.4656L34.9247 46.4656C30.7247 45.9656 29.9247 45.4656 29.9247 41.0656L29.9247 40.4656L29.4247 40.6656C25.7247 41.8656 24.7247 40.8656 24.6247 40.5656L24.6247 36.5656C25.5247 35.8656 26.0247 35.0656 25.9247 34.2656C25.8247 33.0656 24.6247 32.2656 23.6247 31.7656C23.0247 31.4656 22.5247 31.6656 22.3247 31.8656C21.4247 32.3656 21.3247 33.7656 21.3247 33.9656L21.1247 43.9656L21.1247 44.3656L21.5247 44.3656L26.5247 44.8656L26.5247 48.9656L26.5247 49.3656L26.9247 49.3656L33.0247 49.3656L33.0247 56.3656L33.0247 56.9656L33.6247 56.7656L39.8247 54.0656L41.1247 59.8656L41.2247 60.3656L41.7247 60.1656L46.7247 57.5656L47.9247 61.3656L48.0247 61.7656L48.4247 61.5656L54.2247 59.2656L56.2247 63.7656L56.4247 64.1656L56.8247 63.9656L62.6247 60.8656L66.7247 63.9656L67.0247 64.1656L67.2247 63.9656C67.2247 63.8656 68.4247 62.6656 70.3247 59.3656C73.1247 68.5656 64.9247 79.2656 60.3247 83.2656L60.3247 83.2656ZM39.3247 92.3656L39.3247 92.3656C41.2247 85.9656 43.4247 79.5656 44.1247 78.8656C44.3247 78.8656 44.5247 78.9656 44.7247 79.3656C45.2247 80.3656 45.6247 83.4656 39.3247 92.3656L39.3247 92.3656ZM49.9247 117.566L49.9247 117.566C50.0247 116.866 50.3247 115.966 50.9247 115.366C51.3247 114.966 51.8247 114.766 52.4247 114.566C51.3247 115.266 50.5247 116.266 49.9247 117.566L49.9247 117.566ZM78.4247 90.9656L78.4247 90.9656L78.4247 90.9656L78.3247 91.0656C76.4247 95.6656 74.8247 98.0656 73.5247 98.3656C72.7247 98.4656 72.1247 97.8656 71.5247 97.2656L71.3247 97.0656L71.0247 96.7656L70.7247 97.0656C67.3247 100.466 65.8247 103.466 65.8247 107.166L65.8247 107.466L66.1247 107.566C70.5247 108.666 73.4247 110.966 74.2247 113.866C74.7247 115.566 74.3247 117.166 73.3247 118.166C71.8247 119.666 70.1247 120.366 68.5247 120.266C67.4247 120.166 66.4247 119.466 65.5247 118.566C67.0247 118.566 68.4247 117.966 69.1247 117.066C69.7247 116.266 69.7247 115.166 69.1247 114.166C68.4247 113.166 67.5247 112.566 66.5247 112.466C64.2247 112.266 61.6247 114.566 59.9247 116.266C58.1247 118.066 56.3247 121.166 57.6247 125.766C55.4247 125.866 54.0247 125.366 53.3247 124.366C51.6247 121.666 54.8247 115.766 56.3247 112.866C56.6247 112.366 56.8247 111.966 56.9247 111.666L57.2247 111.166L56.6247 111.166C51.7247 110.766 49.4247 112.166 48.3247 113.466C47.2247 114.766 47.0247 116.266 47.1247 117.366C45.9247 117.166 44.0247 116.266 44.0247 112.166C44.0247 107.966 49.5247 107.966 51.3247 107.966C51.7247 107.966 52.2247 108.066 52.6247 108.066C53.7247 108.166 54.7247 108.266 55.4247 107.766C55.7247 107.466 55.9247 107.066 55.9247 106.466C55.9247 104.066 51.2247 103.366 48.8247 103.266C49.8247 100.766 51.1247 99.2656 52.6247 98.8656C55.4247 98.2656 58.8247 101.566 61.5247 104.166L61.8247 104.466L62.1247 104.766L62.4247 104.466C63.0247 103.866 68.7247 96.6656 67.8247 92.2656C67.1247 88.0656 69.4247 83.7656 71.3247 79.9656C71.7247 79.2656 72.0247 78.5656 72.4247 77.8656C73.2247 76.2656 73.7247 76.1656 73.8247 76.1656C74.2247 76.1656 74.7247 77.1656 74.9247 77.7656L74.9247 77.8656L75.0247 77.9656C75.7247 78.6656 78.9247 89.8656 78.4247 90.9656L78.4247 90.9656ZM98.7247 136.666L98.7247 136.666C101.125 138.766 104.225 139.666 107.825 139.466C106.925 141.266 105.125 142.366 102.925 142.466C99.3247 142.566 96.0247 140.066 94.1247 135.766L93.5247 134.566L93.3247 135.866C92.8247 139.366 97.7247 147.266 105.425 151.466C104.625 152.266 103.525 152.766 102.125 152.766C99.3247 152.866 96.3247 151.366 94.1247 148.766L93.7247 148.266L93.4247 148.866C93.0247 149.766 93.5247 150.866 94.2247 152.066C94.7247 152.966 95.2247 153.866 95.2247 154.766C95.2247 155.366 95.1247 160.566 90.6247 163.366C86.1247 160.566 86.0247 155.366 86.0247 154.766C86.0247 153.866 86.5247 152.966 87.0247 152.066C87.6247 150.866 88.2247 149.866 87.8247 148.866L87.5247 148.266L87.1247 148.766C84.9247 151.366 81.9247 152.866 79.1247 152.766C77.7247 152.766 76.6247 152.166 75.8247 151.466C83.5247 147.266 88.4247 139.266 87.9247 135.866L87.7247 134.466L87.1247 135.766C85.1247 140.066 81.8247 142.666 78.3247 142.566C76.1247 142.466 74.4247 141.366 73.4247 139.566C76.9247 139.966 79.9247 139.166 82.3247 137.166C87.5247 132.866 88.2247 124.366 88.2247 122.666L92.8247 122.666C93.0247 124.366 93.6247 132.266 98.7247 136.666L98.7247 136.666ZM95.4247 115.366L95.4247 115.366C95.7247 116.166 95.6247 116.866 95.2247 117.466C94.1247 119.166 90.6247 119.666 89.8247 119.666C89.0247 119.666 83.1247 118.966 83.1247 115.966C83.1247 113.466 88.0247 112.766 89.9247 112.666C92.8247 112.666 95.2247 115.166 95.4247 115.366L95.4247 115.366ZM96.1247 96.0656L96.1247 96.0656C95.4247 96.6656 94.5247 96.2656 94.4247 96.2656L93.8247 96.0656L93.8247 96.6656C93.8247 96.6656 93.7247 98.6656 92.4247 101.166C91.1247 100.666 90.6247 99.5656 89.9247 98.0656C89.7247 97.6656 89.5247 97.2656 89.3247 96.7656L88.8247 95.8656L88.5247 96.8656C87.7247 99.7656 89.4247 102.966 92.6247 104.466C93.1247 104.666 93.3247 105.066 93.3247 105.466C93.3247 106.466 91.7247 107.966 90.5247 108.466C90.0247 108.666 89.7247 108.666 89.6247 108.566C80.4247 86.8656 80.7247 82.2656 81.3247 79.6656C83.4247 80.7656 85.1247 83.3656 85.1247 83.3656L85.6247 84.1656L85.8247 83.2656C85.8247 83.2656 86.4247 80.8656 87.3247 78.6656C88.5247 80.0656 90.6247 83.3656 90.7247 83.3656L90.9247 83.6656L90.7247 84.1656L88.2247 89.7656C87.5247 89.1656 86.1247 87.6656 84.7247 85.5656L84.0247 85.8656C85.2247 91.2656 86.7247 93.0656 88.4247 94.6656L89.1247 95.2656L89.1247 94.3656C89.1247 93.9656 90.4247 90.9656 91.5247 89.5656C92.0247 91.5656 94.1247 93.7656 94.4247 94.0656C94.7247 94.3656 95.1247 94.6656 95.4247 94.8656C95.8247 95.1656 96.3247 95.5656 96.3247 95.7656C96.2247 95.9656 96.1247 96.0656 96.1247 96.0656L96.1247 96.0656ZM99.9247 85.2656L99.9247 85.2656L98.7247 84.1656L98.4247 83.8656L98.1247 84.1656C98.0247 84.2656 96.7247 85.6656 95.3247 91.0656C93.8247 89.1656 91.5247 84.2656 91.4247 84.1656L91.3247 83.6656C91.4247 83.4656 91.5247 83.2656 91.5247 83.2656L94.6247 77.6656C95.6247 79.9656 96.6247 82.7656 96.6247 82.7656L96.9247 83.4656L97.3247 82.8656C98.6247 81.2656 100.625 79.0656 101.625 78.5656C101.625 82.2656 100.425 84.5656 99.9247 85.2656L99.9247 85.2656ZM102.125 69.4656L102.125 69.4656L101.625 69.1656L101.525 69.7656C101.125 71.5656 99.9247 76.1656 98.7247 77.8656C98.2247 76.9656 97.6247 75.8656 97.1247 74.8656C96.1247 72.8656 95.1247 70.9656 94.1247 69.9656L93.6247 69.4656L93.4247 70.1656C92.8247 72.2656 92.5247 73.7656 92.2247 75.0656C91.8247 76.7656 91.6247 77.7656 91.1247 78.3656C88.6247 75.6656 86.7247 70.8656 86.6247 70.7656L86.3247 69.6656L86.0247 70.8656L84.1247 77.6656C83.3247 76.9656 81.4247 75.1656 81.2247 71.8656L81.2247 70.3656L80.5247 71.6656L78.0247 76.4656C77.0247 75.2656 74.2247 70.6656 75.7247 61.4656C77.7247 64.8656 80.2247 67.5656 80.4247 67.6656L80.9247 68.1656L81.1247 67.4656L82.2247 61.9656C83.6247 64.0656 85.3247 66.8656 85.3247 67.6656L85.3247 68.6656L86.0247 67.9656C87.8247 66.0656 89.6247 63.3656 90.1247 61.7656C91.4247 63.1656 93.1247 65.5656 93.5247 67.9656L94.3247 67.8656L94.3247 68.0656C94.3247 67.9656 94.5247 67.6656 94.8247 67.2656C96.4247 64.6656 97.8247 62.2656 98.5247 60.6656C99.9247 63.9656 101.025 68.1656 101.125 68.1656L101.225 68.6656L101.725 68.3656C101.925 68.2656 105.025 66.3656 106.925 62.9656C106.825 69.1656 106.125 71.0656 103.925 73.3656C103.425 70.4656 102.225 69.4656 102.125 69.4656L102.125 69.4656ZM129.025 114.466L129.025 114.466C129.625 114.566 130.025 114.866 130.425 115.266C131.025 115.866 131.325 116.566 131.425 117.266C130.825 116.166 130.025 115.266 129.025 114.466L129.025 114.466ZM119.325 104.366L119.325 104.366L119.625 104.666L119.925 104.366L120.125 104.166C122.825 101.466 126.125 98.1656 129.025 98.7656C130.525 99.0656 131.825 100.566 132.825 103.166C130.425 103.266 125.725 103.966 125.725 106.366C125.725 106.966 125.925 107.366 126.225 107.666C126.825 108.266 127.925 108.166 129.025 107.966C129.425 107.966 129.925 107.866 130.325 107.866C132.125 107.866 137.725 107.866 137.725 112.066C137.725 116.266 135.825 117.166 134.625 117.266C134.725 116.066 134.525 114.666 133.425 113.366C132.325 112.066 130.025 110.666 125.125 111.066L124.525 111.066L124.825 111.566C125.025 111.866 125.225 112.366 125.525 112.866C125.625 113.066 125.825 113.366 125.925 113.666L125.825 113.666L125.925 113.666C127.525 116.666 130.025 121.766 128.525 124.266C127.825 125.266 126.325 125.766 124.225 125.666C125.525 121.066 123.725 117.966 121.925 116.166C120.025 114.266 117.625 112.166 115.325 112.366C114.325 112.466 113.425 112.966 112.725 113.966C112.125 114.966 112.125 115.966 112.725 116.866C113.425 117.866 114.825 118.466 116.325 118.366C115.525 119.266 114.525 119.966 113.325 120.066C111.725 120.266 110.025 119.566 108.525 117.966C107.525 116.966 107.225 115.366 107.625 113.666C108.425 110.766 111.425 108.466 115.825 107.266L116.125 107.166L116.125 106.866C116.125 103.166 114.625 100.166 111.225 96.7656L110.925 96.4656L110.625 96.7656L110.425 96.9656C109.825 97.5656 109.125 98.2656 108.425 98.0656C107.125 97.7656 105.525 95.3656 103.625 90.7656L103.625 90.6656L103.625 90.6656C103.025 89.5656 106.225 78.3656 106.825 77.5656L106.925 77.4656L106.925 77.3656C107.125 76.7656 107.525 75.7656 108.025 75.7656C108.125 75.7656 108.725 75.8656 109.425 77.4656C109.725 78.1656 110.125 78.8656 110.525 79.5656C112.525 83.3656 114.725 87.6656 114.025 91.8656C113.025 96.6656 118.825 103.866 119.325 104.366L119.325 104.366L119.325 104.366ZM141.225 91.3656L141.225 91.3656L141.025 91.0656L140.525 90.3656L140.325 90.0656L139.925 89.4656L139.725 89.0656L139.425 88.5656L139.225 88.2656L138.925 87.7656L138.725 87.4656L138.425 86.9656L138.225 86.6656L138.025 86.2656L137.925 85.9656L137.725 85.5656L137.625 85.2656L137.325 84.6656L137.225 84.4656C137.225 84.4656 137.125 84.1656 137.025 84.0656L136.925 83.8656L136.925 83.8656L136.925 83.8656L136.825 83.5656L136.825 83.3656L136.825 83.3656L136.825 83.3656L136.725 82.9656L136.725 82.8656L136.625 82.5656L136.625 82.5656L136.625 82.5656L136.525 82.3656L136.425 82.0656C136.425 82.0656 136.425 81.9656 136.425 81.8656L136.425 81.6656L136.425 81.6656L136.425 81.6656L136.425 81.5656L136.325 81.3656L136.325 81.2656L136.325 81.0656L136.325 80.9656L136.325 80.7656L136.325 80.6656L136.325 80.4656L136.325 80.4656L136.425 80.2656L136.425 80.1656C136.425 80.1656 136.425 80.0656 136.425 79.9656L136.425 79.9656L136.525 79.7656L136.625 79.6656L136.625 79.5656C136.625 79.5656 136.625 79.4656 136.725 79.4656L136.725 79.4656L136.725 79.4656L136.725 79.4656L136.725 79.4656L136.725 79.4656L136.825 79.3656L136.925 79.2656L136.925 79.2656L137.025 79.2656L137.125 79.2656L137.125 79.2656L137.125 79.2656C137.825 79.9656 140.025 86.2656 141.925 92.6656L141.225 91.3656L141.225 91.3656ZM170.225 83.5656L170.225 83.5656C166.825 83.7656 158.025 81.7656 150.225 59.6656C149.825 58.4656 149.225 57.9656 148.525 58.0656C147.725 58.1656 147.225 59.3656 147.225 61.4656L147.225 61.4656C147.225 68.3656 148.125 91.7656 159.125 100.766C162.925 103.866 167.525 104.966 172.825 104.066C171.125 110.066 167.825 113.866 163.925 114.266C158.625 114.766 152.725 109.166 147.525 98.3656C146.225 95.6656 144.525 90.3656 142.725 84.7656C138.825 72.8656 136.225 64.9656 134.125 64.1656C133.325 63.8656 132.825 64.0656 132.425 64.3656C131.525 65.0656 130.525 67.2656 132.125 78.0656C133.425 85.4656 136.225 89.7656 138.625 91.6656C135.425 92.3656 129.925 92.1656 123.025 70.2656C122.225 67.8656 121.425 66.7656 120.425 66.8656C119.225 66.9656 118.725 68.8656 118.525 70.4656C118.025 73.6656 119.725 80.0656 121.025 83.2656C116.425 79.2656 108.225 68.5656 111.225 59.3656C113.125 62.7656 114.325 63.9656 114.325 63.9656L114.525 64.1656L114.825 63.9656L118.925 60.8656L124.725 63.9656L125.125 64.1656L125.325 63.7656L127.225 59.2656L133.025 61.5656L133.425 61.7656L133.525 61.3656L134.825 57.5656L139.825 60.1656L140.325 60.3656L140.425 59.8656L141.725 54.0656L147.925 56.7656L148.525 56.9656L148.525 56.3656L148.525 49.3656L154.625 49.3656L155.025 49.3656L155.025 48.9656L155.025 44.8656L160.025 44.3656L160.425 44.3656L160.425 43.9656L160.225 34.0656C160.225 33.8656 160.025 32.4656 159.225 31.9656C158.925 31.7656 158.525 31.6656 157.925 31.8656C156.925 32.2656 155.725 33.1656 155.625 34.3656C155.525 35.1656 156.025 35.9656 156.925 36.6656L156.925 40.6656C156.825 40.8656 155.925 41.9656 152.125 40.7656L151.625 40.5656L151.625 41.1656C151.625 45.4656 150.825 45.9656 146.625 46.5656L146.325 46.5656L146.225 46.7656C145.625 48.6656 145.125 50.0656 144.125 50.4656C143.225 50.8656 141.825 50.4656 139.725 49.3656L139.225 49.0656L139.125 49.5656C139.025 50.0656 138.925 50.4656 138.925 50.8656C138.725 52.4656 138.525 53.7656 137.725 54.0656C137.025 54.3656 135.825 54.0656 133.925 52.9656L133.325 52.6656L133.125 53.1656C133.025 53.5656 132.925 53.8656 132.825 54.2656C132.325 55.9656 131.925 57.4656 131.025 57.6656C130.325 57.8656 129.225 57.1656 127.625 55.6656L127.325 55.3656L127.025 55.7656C125.225 58.3656 123.625 59.5656 122.125 59.4656C121.025 59.3656 120.025 58.5656 119.225 56.9656L118.925 56.4656L118.525 56.8656C116.925 58.4656 115.825 59.0656 114.925 58.9656C114.125 58.8656 113.325 58.0656 112.425 56.5656L112.425 56.5656L112.425 56.5656C112.025 56.1656 111.425 55.7656 110.925 55.4656C110.725 55.3656 110.525 55.2656 110.425 55.1656C110.725 55.1656 111.125 55.0656 111.825 55.0656L112.025 55.0656C116.625 55.0656 128.825 55.0656 137.425 49.2656C146.825 42.9656 156.525 35.6656 152.725 28.5656C152.725 27.5656 153.225 27.0656 154.225 25.9656C155.025 25.1656 155.325 23.2656 155.325 21.8656C155.325 21.0656 155.225 19.8656 154.725 19.3656L154.425 19.0656L154.125 19.3656C153.525 19.9656 153.225 20.5656 153.025 21.1656C152.625 22.1656 152.125 23.1656 150.425 23.9656C149.925 22.8656 149.525 22.0656 149.225 21.2656C148.425 19.3656 147.925 18.4656 146.625 18.4656L146.225 18.4656L146.225 18.8656C146.225 19.4656 146.425 20.1656 146.625 20.9656C146.925 22.0656 147.325 23.3656 146.925 24.3656C145.025 25.0656 142.825 27.8656 142.825 29.5656L142.825 30.0656L143.325 29.9656C143.925 29.7656 144.525 29.5656 144.925 29.3656C145.225 29.2656 145.725 29.0656 145.825 29.0656C145.825 29.0656 145.925 29.1656 145.925 29.8656C145.925 30.3656 145.925 30.7656 145.825 31.1656C145.725 32.6656 145.625 33.9656 147.125 35.3656L147.625 35.8656L147.825 35.1656C148.725 31.7656 150.225 30.0656 150.625 30.0656C150.625 30.0656 150.725 30.1656 150.725 30.6656C150.725 33.1656 150.025 36.4656 144.825 40.2656C141.325 42.8656 132.125 49.0656 123.625 50.4656L121.925 50.7656C115.725 51.8656 111.925 52.4656 109.225 48.5656C113.725 48.2656 137.925 46.4656 144.525 37.1656L144.725 36.9656L144.525 36.7656C142.925 34.7656 139.325 28.2656 141.025 22.9656C142.025 19.8656 144.725 17.7656 148.925 16.5656C153.025 15.6656 156.325 17.3656 158.325 18.9656C162.125 21.9656 164.825 27.1656 164.825 31.4656C164.925 35.5656 165.625 49.2656 171.325 52.5656C173.025 53.5656 175.125 53.3656 177.525 52.2656C177.125 54.3656 175.725 57.3656 173.125 58.1656C170.325 59.0656 166.825 57.1656 163.125 52.7656C162.725 52.3656 162.125 51.8656 161.425 52.0656C160.825 52.2656 160.525 53.2656 160.525 55.1656C160.525 55.3656 160.925 72.3656 168.525 77.8656C170.825 79.5656 173.625 79.8656 176.725 79.0656C176.025 81.1656 173.525 83.4656 170.225 83.5656L170.225 83.5656ZM68.4247 226.766L68.4247 226.766L68.9247 226.266L68.6247 225.266C68.9247 220.166 76.1247 208.366 76.1247 208.366C76.1247 208.366 91.2247 208.766 93.7247 208.466L97.9247 223.866C95.9247 225.366 95.5247 226.466 95.9247 226.666C99.3247 224.966 105.925 224.266 109.725 224.966C110.125 225.066 117.225 226.866 117.825 226.566C117.225 225.966 116.125 225.066 116.025 224.266C115.925 223.466 115.925 222.666 115.925 222.666C115.025 209.966 121.025 163.766 121.025 163.166C121.725 158.066 123.125 162.666 123.125 162.666C123.125 162.666 135.325 221.366 136.125 225.366L136.125 225.566L136.425 226.466L139.025 226.466L139.325 225.366C141.825 216.366 156.625 164.866 156.625 164.666C157.825 160.866 159.025 163.966 159.025 163.966C160.925 166.166 162.425 223.366 162.325 223.466C159.125 225.366 159.625 226.666 159.725 226.666C166.925 223.066 180.525 226.566 180.725 226.466L174.925 221.066L174.925 221.066C173.525 215.666 168.825 141.766 168.925 139.666C168.625 138.166 172.225 135.866 172.425 135.866C165.125 137.266 158.625 136.566 155.425 135.966C153.525 135.566 157.325 137.466 157.025 138.966C156.125 147.566 141.525 191.966 141.625 191.866C138.325 188.766 131.525 141.166 131.525 140.566C131.225 138.466 134.925 136.766 134.325 135.966C126.525 139.466 115.525 135.966 115.525 135.966C114.325 136.566 118.025 137.966 117.925 141.166C117.825 144.366 112.025 210.166 111.025 215.966C110.725 217.866 110.425 219.866 109.725 221.666L109.125 220.666C102.425 207.966 98.6247 177.766 98.8247 176.566C99.0247 175.366 101.525 174.666 101.525 174.666L86.2247 174.566C86.0247 178.366 67.1247 218.366 62.7247 222.166L62.7247 222.166C62.7247 222.166 63.2247 145.366 63.2247 141.366C63.1247 138.166 67.2247 135.966 67.2247 135.966L66.6247 136.066C64.3247 136.766 61.5247 137.066 58.4247 137.066C55.3247 137.066 52.5247 136.666 50.3247 135.966C49.3247 135.766 49.2247 136.066 49.2247 136.166L50.3247 137.566C55.6247 142.466 49.8247 172.766 49.4247 173.466C24.6247 246.466 14.7247 203.566 14.7247 203.566C12.0247 191.666 18.2247 143.266 18.4247 143.166C20.1247 139.866 25.2247 136.766 25.1247 136.366L25.0247 136.166C15.3247 140.666 0.124717 135.966 0.0247173 136.066L0.0247173 136.066L0.0247173 136.166C-0.575283 136.466 5.62472 139.266 5.82472 141.866C5.82472 143.166 2.32472 198.066 2.32472 197.866C1.52472 226.466 18.3247 226.766 18.3247 226.766C40.6247 226.366 50.5247 184.366 50.7247 183.266C50.9247 182.166 52.1247 182.666 52.1247 182.666L52.3247 221.666L51.3247 223.666L49.5247 226.766C55.3247 224.866 61.2247 225.266 67.0247 226.466C67.8247 226.666 68.3247 226.766 68.4247 226.766L68.4247 226.766ZM87.7247 7.16557L88.2247 7.26557L88.0247 7.76557C88.0247 7.76557 87.5247 8.96557 86.3247 9.36557C85.3247 9.66557 84.2247 9.36557 83.0247 8.56557L82.4247 8.16557L83.1247 7.86557C83.2247 7.86557 85.3247 6.86557 86.6247 7.06557L87.7247 7.16557Z" fill="#000000" fill-rule="nonzero" opacity="1" stroke="none"/>
</g>
</svg>
