<?xml version="1.0" encoding="UTF-8" standalone="no"?>
<!DOCTYPE svg PUBLIC "-//W3C//DTD SVG 1.1//EN" "http://www.w3.org/Graphics/SVG/1.1/DTD/svg11.dtd">
<!-- Created with Vectornator (http://vectornator.io/) -->
<svg height="100%" stroke-miterlimit="10" style="fill-rule:nonzero;clip-rule:evenodd;stroke-linecap:round;stroke-linejoin:round;" version="1.1" viewBox="0 0 202.841 201.177" width="100%" xml:space="preserve" xmlns="http://www.w3.org/2000/svg" xmlns:xlink="http://www.w3.org/1999/xlink">
<defs/>
<clipPath id="ArtboardFrame">
<rect height="201.177" width="202.841" x="0" y="0"/>
</clipPath>
<g clip-path="url(#ArtboardFrame)" id="Untitled">
<path d="M1110.69 101.906C1110.18 102.839 1109.75 103.796 1109.09 104.906C1108.92 105.201 1108.69 105.53 1108.5 105.844C1109.75 106.208 1110.89 106.795 1112.09 107.25L1112.09 102.094C1111.62 102.006 1111.16 101.984 1110.69 101.906Z" fill="#000000" fill-rule="nonzero" opacity="1" stroke="none"/>
<path d="M62.3842 102.927C60.2208 60.6644 85.3888 14.9872 85.3888 14.9872C85.3888 14.9872 80.2851 15.591 77.6207 16.0994C61.7744 39.7748 52.122 70.2905 52.122 103.655C52.122 137.668 62.0981 168.773 78.5052 192.646C82.6113 193.424 86.7741 193.865 90.9521 193.964C91.3303 193.968 64.9139 152.38 62.3842 102.927" fill="#000000" fill-rule="nonzero" opacity="1" stroke="none"/>
<path d="M84.0276 199.495C39.3386 193.993 3.2878 155.88 0.70845 108.103C-1.80152 61.66 27.9975 20.9635 69.8702 9.2392C53.1884 34.4736 43.8917 67.7259 45.8353 103.533C47.9074 141.863 62.4478 175.89 84.0276 199.495" fill="#000000" fill-rule="nonzero" opacity="1" stroke="none"/>
<path d="M153.019 12.4655C190.269 31.1586 210.491 77.4575 198.88 122.632C187.582 166.461 149.858 195.13 110.068 193.312C131.902 174.957 149.68 146.946 158.351 113.104C167.679 76.9068 164.938 40.9309 153.019 12.4655" fill="#000000" fill-rule="nonzero" opacity="1" stroke="none"/>
<path d="M134.738 98.0851C136.398 136.694 122.759 169.115 113.986 185.674C131.531 168.032 145.339 143.875 152.207 115.582C158.595 89.2901 158.05 63.258 151.954 40.4528C139.877 27.7653 124.103 19.2139 106.881 16.0173C117.034 32.5805 133.264 64.0292 134.738 98.0852" fill="#000000" fill-rule="nonzero" opacity="1" stroke="none"/>
<path d="M94.6883 0.2198C94.6395 0.2198 128.28 47.251 128.878 98.9491C129.605 157.286 97.0623 200.917 96.9598 200.917C96.6244 200.917 64.5861 150.213 64.1498 99.5601C63.6686 49.8794 94.768 0.2198 94.6883 0.2198" fill="#000000" fill-rule="nonzero" opacity="1" stroke="none"/>
<path d="M95.7421 1.78193L93.7668 1.78193C89.3336 9.36053 70.1087 43.6386 65.2595 81.5537L65.2595 115.443C70.9625 160.291 96.658 200.92 96.9629 200.92C97.0581 200.92 129.604 157.287 128.877 98.9507C128.341 52.7707 101.444 10.32 95.7421 1.78193" fill="#000000" fill-rule="nonzero" opacity="1" stroke="none"/>
</g>
</svg>
